<svg width="12" height="23" viewBox="0 0 12 23" fill="none" xmlns="http://www.w3.org/2000/svg">
<path d="M7.84941 22.6182C7.73711 22.6227 7.66523 22.6317 7.59336 22.6317C6.05703 22.6317 4.5252 22.6272 2.98887 22.6361C2.77324 22.6361 2.71484 22.5777 2.71484 22.3621C2.71934 18.7863 2.71934 15.2061 2.71934 11.6303C2.71934 11.5359 2.71934 11.4416 2.71934 11.3203C1.88379 11.3203 1.0707 11.3203 0.244141 11.3203C0.244141 10.0445 0.244141 8.79122 0.244141 7.50196C0.329492 7.50196 0.410351 7.50196 0.486718 7.50196C1.16055 7.50196 1.83437 7.49747 2.5082 7.50646C2.67891 7.50646 2.72383 7.45704 2.72383 7.29083C2.71484 6.28907 2.71484 5.28282 2.72383 4.28107C2.72832 3.58029 2.84062 2.89747 3.16406 2.26407C3.62676 1.37013 4.35898 0.790636 5.28437 0.431261C6.03906 0.134777 6.83418 0.0269644 7.63379 0.0134878C8.93652 -0.00448095 10.2393 0.00450342 11.542 1.12305e-05C11.6633 1.12305e-05 11.7621 -0.00448096 11.7621 0.166222C11.7576 1.40157 11.7576 2.63693 11.7576 3.87228C11.7576 3.88575 11.7531 3.89923 11.7352 3.95763C11.6588 3.95763 11.5734 3.95763 11.4881 3.95763C10.6795 3.95763 9.8709 3.95314 9.0623 3.95763C8.59512 3.95763 8.21777 4.1463 7.97969 4.55509C7.90781 4.67638 7.86289 4.83361 7.86289 4.97736C7.84941 5.74103 7.86289 6.5047 7.85391 7.26837C7.85391 7.44806 7.90781 7.49747 8.08301 7.49747C9.20605 7.48849 10.3291 7.49298 11.4521 7.49298C11.542 7.49298 11.6273 7.49298 11.7801 7.49298C11.6229 8.77775 11.4701 10.0356 11.3129 11.3068C10.1449 11.3068 9.0084 11.3068 7.84941 11.3068C7.84941 15.0848 7.84941 18.8402 7.84941 22.6182Z" fill="#FBFBFB"/>
</svg>
