<svg width="44" height="44" viewBox="0 0 44 44" fill="none" xmlns="http://www.w3.org/2000/svg">
<circle cx="22" cy="22" r="21.5" fill="#E20514" fill-opacity="0.15" stroke="url(#paint0_linear_10_14)"/>
<path d="M25.2 22C25.2 22.6329 25.0123 23.2516 24.6607 23.7778C24.3091 24.3041 23.8093 24.7142 23.2246 24.9564C22.6399 25.1986 21.9965 25.262 21.3757 25.1385C20.755 25.015 20.1848 24.7103 19.7373 24.2627C19.2897 23.8152 18.985 23.245 18.8615 22.6243C18.738 22.0035 18.8014 21.3601 19.0436 20.7754C19.2858 20.1907 19.6959 19.6909 20.2222 19.3393C20.7484 18.9877 21.3671 18.8 22 18.8C22.8484 18.801 23.6618 19.1384 24.2617 19.7383C24.8616 20.3382 25.199 21.1516 25.2 22ZM32 17.6V26.4C31.9983 27.8847 31.4078 29.3081 30.3579 30.3579C29.3081 31.4078 27.8847 31.9983 26.4 32H17.6C16.1153 31.9983 14.6919 31.4078 13.6421 30.3579C12.5922 29.3081 12.0017 27.8847 12 26.4V17.6C12.0017 16.1153 12.5922 14.6919 13.6421 13.6421C14.6919 12.5922 16.1153 12.0017 17.6 12H26.4C27.8847 12.0017 29.3081 12.5922 30.3579 13.6421C31.4078 14.6919 31.9983 16.1153 32 17.6ZM26.8 22C26.8 21.0506 26.5185 20.1226 25.9911 19.3333C25.4636 18.5439 24.714 17.9287 23.8369 17.5654C22.9598 17.2021 21.9947 17.107 21.0636 17.2922C20.1325 17.4774 19.2772 17.9346 18.6059 18.6059C17.9346 19.2772 17.4774 20.1325 17.2922 21.0636C17.107 21.9947 17.2021 22.9598 17.5654 23.8369C17.9287 24.714 18.5439 25.4636 19.3333 25.9911C20.1226 26.5185 21.0506 26.8 22 26.8C23.2726 26.7986 24.4927 26.2924 25.3925 25.3925C26.2924 24.4927 26.7986 23.2726 26.8 22ZM28.4 16.8C28.4 16.5627 28.3296 16.3307 28.1978 16.1333C28.0659 15.936 27.8785 15.7822 27.6592 15.6913C27.4399 15.6005 27.1987 15.5768 26.9659 15.6231C26.7331 15.6694 26.5193 15.7836 26.3515 15.9515C26.1837 16.1193 26.0694 16.3331 26.0231 16.5659C25.9768 16.7987 26.0005 17.0399 26.0913 17.2592C26.1822 17.4785 26.336 17.6659 26.5333 17.7978C26.7307 17.9296 26.9627 18 27.2 18C27.5183 18 27.8235 17.8736 28.0485 17.6485C28.2736 17.4235 28.4 17.1183 28.4 16.8Z" fill="#FBFBFB"/>
<defs>
<linearGradient id="paint0_linear_10_14" x1="22" y1="0" x2="22" y2="44" gradientUnits="userSpaceOnUse">
<stop stop-color="#E20514"/>
<stop offset="0.510417" stop-color="#E20514" stop-opacity="0"/>
<stop offset="1" stop-color="#E20514"/>
</linearGradient>
</defs>
</svg>
