<svg width="44" height="44" viewBox="0 0 44 44" fill="none" xmlns="http://www.w3.org/2000/svg">
<circle cx="22" cy="22" r="21.5" fill="#E20514" fill-opacity="0.15" stroke="url(#paint0_linear_10_15)"/>
<path d="M24.8494 33.8428C24.7371 33.8473 24.6652 33.8563 24.5934 33.8563C23.057 33.8563 21.5252 33.8518 19.9889 33.8608C19.7732 33.8608 19.7148 33.8024 19.7148 33.5867C19.7193 30.011 19.7193 26.4307 19.7193 22.8549C19.7193 22.7606 19.7193 22.6662 19.7193 22.5449C18.8838 22.5449 18.0707 22.5449 17.2441 22.5449C17.2441 21.2692 17.2441 20.0158 17.2441 18.7266C17.3295 18.7266 17.4104 18.7266 17.4867 18.7266C18.1605 18.7266 18.8344 18.7221 19.5082 18.7311C19.6789 18.7311 19.7238 18.6817 19.7238 18.5154C19.7148 17.5137 19.7148 16.5074 19.7238 15.5057C19.7283 14.8049 19.8406 14.1221 20.1641 13.4887C20.6268 12.5947 21.359 12.0152 22.2844 11.6559C23.0391 11.3594 23.8342 11.2516 24.6338 11.2381C25.9365 11.2201 27.2393 11.2291 28.542 11.2246C28.6633 11.2246 28.7621 11.2201 28.7621 11.3908C28.7576 12.6262 28.7576 13.8615 28.7576 15.0969C28.7576 15.1104 28.7531 15.1238 28.7352 15.1822C28.6588 15.1822 28.5734 15.1822 28.4881 15.1822C27.6795 15.1822 26.8709 15.1777 26.0623 15.1822C25.5951 15.1822 25.2178 15.3709 24.9797 15.7797C24.9078 15.901 24.8629 16.0582 24.8629 16.202C24.8494 16.9656 24.8629 17.7293 24.8539 18.493C24.8539 18.6727 24.9078 18.7221 25.083 18.7221C26.2061 18.7131 27.3291 18.7176 28.4521 18.7176C28.542 18.7176 28.6273 18.7176 28.7801 18.7176C28.6229 20.0024 28.4701 21.2602 28.3129 22.5315C27.1449 22.5315 26.0084 22.5315 24.8494 22.5315C24.8494 26.3094 24.8494 30.0649 24.8494 33.8428Z" fill="#FBFBFB"/>
<defs>
<linearGradient id="paint0_linear_10_15" x1="22" y1="0" x2="22" y2="44" gradientUnits="userSpaceOnUse">
<stop stop-color="#E20514"/>
<stop offset="0.510417" stop-color="#E20514" stop-opacity="0"/>
<stop offset="1" stop-color="#E20514"/>
</linearGradient>
</defs>
</svg>
