<svg width="20" height="21" viewBox="0 0 20 21" fill="none" xmlns="http://www.w3.org/2000/svg">
<path d="M13.2 10.7754C13.2 11.4083 13.0123 12.027 12.6607 12.5532C12.3091 13.0795 11.8093 13.4896 11.2246 13.7318C10.6399 13.974 9.99645 14.0374 9.37571 13.9139C8.75497 13.7904 8.18479 13.4857 7.73726 13.0381C7.28973 12.5906 6.98496 12.0204 6.86149 11.3997C6.73801 10.7789 6.80138 10.1355 7.04359 9.5508C7.28579 8.96608 7.69594 8.46631 8.22218 8.11469C8.74841 7.76307 9.3671 7.57539 10 7.57539C10.8484 7.57636 11.6618 7.91381 12.2617 8.51372C12.8616 9.11363 13.199 9.927 13.2 10.7754ZM20 6.37539V15.1754C19.9983 16.6601 19.4078 18.0835 18.3579 19.1333C17.3081 20.1832 15.8847 20.7737 14.4 20.7754H5.6C4.1153 20.7737 2.6919 20.1832 1.64206 19.1333C0.59222 18.0835 0.00168148 16.6601 0 15.1754V6.37539C0.00168148 4.89069 0.59222 3.46729 1.64206 2.41745C2.6919 1.36761 4.1153 0.777072 5.6 0.775391H14.4C15.8847 0.777072 17.3081 1.36761 18.3579 2.41745C19.4078 3.46729 19.9983 4.89069 20 6.37539V6.37539ZM14.8 10.7754C14.8 9.82604 14.5185 8.89801 13.9911 8.10865C13.4636 7.3193 12.714 6.70407 11.8369 6.34077C10.9598 5.97747 9.99468 5.88241 9.06357 6.06762C8.13246 6.25283 7.27718 6.70999 6.60589 7.38128C5.9346 8.05257 5.47744 8.90785 5.29223 9.83896C5.10702 10.7701 5.20208 11.7352 5.56538 12.6123C5.92868 13.4894 6.54391 14.239 7.33326 14.7664C8.12262 15.2939 9.05065 15.5754 10 15.5754C11.2726 15.574 12.4927 15.0678 13.3925 14.1679C14.2924 13.2681 14.7986 12.048 14.8 10.7754V10.7754ZM16.4 5.57539C16.4 5.33805 16.3296 5.10605 16.1978 4.90871C16.0659 4.71137 15.8785 4.55756 15.6592 4.46674C15.4399 4.37591 15.1987 4.35215 14.9659 4.39845C14.7331 4.44475 14.5193 4.55904 14.3515 4.72686C14.1836 4.89469 14.0694 5.1085 14.0231 5.34128C13.9768 5.57406 14.0005 5.81534 14.0913 6.03461C14.1822 6.25388 14.336 6.4413 14.5333 6.57315C14.7307 6.70501 14.9627 6.77539 15.2 6.77539C15.5183 6.77539 15.8235 6.64896 16.0485 6.42392C16.2736 6.19888 16.4 5.89365 16.4 5.57539Z" fill="#FBFBFB"/>
</svg>
